<?xml version="1.0" encoding="UTF-8"?>
<svg version="1.1" xmlns="http://www.w3.org/2000/svg" width="64" height="64">
<path d="M0 0 C12.87 0 25.74 0 39 0 C39 4.95 39 9.9 39 15 C34.38 15 29.76 15 25 15 C25.05800781 17.03542969 25.11601563 19.07085938 25.17578125 21.16796875 C25.21056146 23.15044089 25.24515937 25.13292076 25.2746582 27.11547852 C25.29972617 28.48807102 25.33379082 29.86053102 25.37719727 31.23266602 C25.43817531 33.21050696 25.46361009 35.18934184 25.48828125 37.16796875 C25.51446533 38.35672607 25.54064941 39.5454834 25.56762695 40.77026367 C24.83322579 44.94892734 23.28084541 46.40066978 20 49 C16.9375 49.5625 16.9375 49.5625 14 49 C11.15219381 46.76793569 10.15002334 45.45007001 9 42 C8.91684248 39.93501108 8.89264122 37.8674211 8.90234375 35.80078125 C8.90556641 34.59228516 8.90878906 33.38378906 8.91210938 32.13867188 C8.92048828 30.87603516 8.92886719 29.61339844 8.9375 28.3125 C8.94201172 27.03826172 8.94652344 25.76402344 8.95117188 24.45117188 C8.96297117 21.3007613 8.98090682 18.15037481 9 15 C1.74 15 -5.52 15 -13 15 C-13 16.32 -13 17.64 -13 19 C-10.03 19 -7.06 19 -4 19 C-4 28.9 -4 38.8 -4 49 C-5.98 49 -7.96 49 -10 49 C-10 40.75 -10 32.5 -10 24 C-12.97 24 -15.94 24 -19 24 C-19 19.05 -19 14.1 -19 9 C-7.78 9 3.44 9 15 9 C15.33 19.89 15.66 30.78 16 42 C16.66 42 17.32 42 18 42 C18.33 31.11 18.66 20.22 19 9 C23.95 9 28.9 9 34 9 C34 7.68 34 6.36 34 5 C22.78 5 11.56 5 0 5 C0 3.35 0 1.7 0 0 Z " fill="#394B8E" transform="translate(22,3)"/>
<path d="M0 0 C1.98 0 3.96 0 6 0 C6.0093457 0.76143311 6.01869141 1.52286621 6.02832031 2.30737305 C6.08210937 5.7680662 6.16574184 9.22742018 6.25 12.6875 C6.26417969 13.88568359 6.27835938 15.08386719 6.29296875 16.31835938 C6.32519531 17.47529297 6.35742188 18.63222656 6.390625 19.82421875 C6.41157227 20.88729248 6.43251953 21.95036621 6.45410156 23.0456543 C7.12351231 26.66843579 8.47390711 28.36545179 11 31 C14.95033266 32.97516633 19.67530756 32.28797662 23.875 31.375 C27.02003151 29.33997961 27.10010034 27.66166068 28 24 C28.3767651 19.87908581 28.5080962 15.76047206 28.625 11.625 C28.66367187 10.50738281 28.70234375 9.38976562 28.7421875 8.23828125 C28.83606555 5.49234839 28.92174911 2.74641524 29 0 C30.98 0 32.96 0 35 0 C35.08789644 3.83318619 35.14069087 7.66610928 35.1875 11.5 C35.21263672 12.57765625 35.23777344 13.6553125 35.26367188 14.765625 C35.32987246 22.00355604 35.12437227 28.25785412 30.28125 34.05859375 C29.6934375 34.51363281 29.105625 34.96867187 28.5 35.4375 C27.9121875 35.91058594 27.324375 36.38367187 26.71875 36.87109375 C22.26724239 39.79492488 17.11367387 39.65909574 12 39 C6.90629313 37.06491204 3.41500225 34.1830873 0.78076172 29.32983398 C-0.96431952 24.1224199 -0.39787108 18.48538756 -0.25 13.0625 C-0.23195313 11.80630859 -0.21390625 10.55011719 -0.1953125 9.25585938 C-0.14837594 6.16978084 -0.08272414 3.08529219 0 0 Z " fill="#B4B4B5" transform="translate(22,22)"/>
</svg>
